<svg width="822" height="824" viewBox="0 0 822 824" fill="none" xmlns="http://www.w3.org/2000/svg">
<path d="M520 603C686.514 603 821.5 468.014 821.5 301.5C821.5 134.986 686.514 0 520 0C353.486 0 218.5 134.986 218.5 301.5C218.5 468.014 353.486 603 520 603Z" fill="#3F3D56"/>
<path opacity="0.05" d="M520 550.398C657.463 550.398 768.898 438.962 768.898 301.5C768.898 164.037 657.463 52.6021 520 52.6021C382.538 52.6021 271.102 164.037 271.102 301.5C271.102 438.962 382.538 550.398 520 550.398Z" fill="black"/>
<path opacity="0.05" d="M520 505.494C632.663 505.494 723.994 414.163 723.994 301.5C723.994 188.837 632.663 97.5063 520 97.5063C407.337 97.5063 316.006 188.837 316.006 301.5C316.006 414.163 407.337 505.494 520 505.494Z" fill="black"/>
<path opacity="0.05" d="M520 447.759C600.777 447.759 666.26 382.277 666.26 301.5C666.26 220.723 600.777 155.24 520 155.24C439.223 155.24 373.74 220.723 373.74 301.5C373.74 382.277 439.223 447.759 520 447.759Z" fill="black"/>
<path d="M21.1703 328.482C21.1703 328.482 -2.53364 395.205 8.00144 418.909C18.5365 442.613 35.2171 465.439 35.2171 465.439C35.2171 465.439 29.0716 332.872 21.1703 328.482Z" fill="#D0CDE1"/>
<path opacity="0.1" d="M21.1703 328.482C21.1703 328.482 -2.53364 395.205 8.00144 418.909C18.5365 442.613 35.2171 465.439 35.2171 465.439C35.2171 465.439 29.0716 332.872 21.1703 328.482Z" fill="black"/>
<path d="M37.8508 482.997C37.8508 482.997 36.095 499.678 35.2171 500.555C34.3392 501.433 36.095 503.189 35.2171 505.823C34.3392 508.457 33.4612 511.968 35.2171 512.846C36.9729 513.724 25.5599 590.982 25.5599 590.982C25.5599 590.982 -2.53363 627.854 8.87938 685.797L12.3911 744.618C12.3911 744.618 39.6067 746.374 39.6067 736.717C39.6067 736.717 37.8508 725.304 37.8508 720.036C37.8508 714.769 42.2405 714.769 39.6067 712.135C36.9729 709.501 36.9729 707.745 36.9729 707.745C36.9729 707.745 41.3626 704.234 40.4846 703.356C39.6067 702.478 48.3859 640.145 48.3859 640.145C48.3859 640.145 58.0431 630.488 58.0431 625.221V619.953C58.0431 619.953 62.4327 608.54 62.4327 607.662C62.4327 606.784 86.1367 553.231 86.1367 553.231L95.7938 591.86L106.329 647.169C106.329 647.169 111.596 697.21 122.132 716.525C122.132 716.525 140.568 779.735 140.568 777.979C140.568 776.224 171.295 771.834 170.417 763.933C169.539 756.031 151.981 645.413 151.981 645.413L156.371 481.241L37.8508 482.997Z" fill="#2F2E41"/>
<path d="M14.147 740.228C14.147 740.228 -9.557 786.758 6.24563 788.514C22.0483 790.27 28.1937 790.27 35.2171 783.247C39.0568 779.407 46.8324 774.255 53.0928 770.374C56.8022 768.111 59.7988 764.849 61.7389 760.961C63.679 757.073 64.484 752.717 64.0617 748.392C63.5987 744.097 61.9938 740.558 58.0431 740.228C47.5081 739.351 35.2171 729.693 35.2171 729.693L14.147 740.228Z" fill="#2F2E41"/>
<path d="M144.957 774.468C144.957 774.468 121.254 820.998 137.056 822.754C152.859 824.509 159.004 824.509 166.028 817.486C169.867 813.646 177.643 808.495 183.903 804.613C187.613 802.35 190.609 799.088 192.549 795.2C194.489 791.312 195.295 786.956 194.872 782.631C194.409 778.336 192.804 774.797 188.854 774.468C178.319 773.59 166.028 763.933 166.028 763.933L144.957 774.468Z" fill="#2F2E41"/>
<path d="M119.905 252.337C140.287 252.337 156.809 235.814 156.809 215.432C156.809 195.051 140.287 178.528 119.905 178.528C99.523 178.528 83.0002 195.051 83.0002 215.432C83.0002 235.814 99.523 252.337 119.905 252.337Z" fill="#FFB8B8"/>
<path d="M96.1805 227.558C96.1805 227.558 69.82 276.061 67.7112 276.061C65.6024 276.061 115.16 291.878 115.16 291.878C115.16 291.878 128.867 245.483 130.976 241.266L96.1805 227.558Z" fill="#FFB8B8"/>
<path d="M136.617 280.636C136.617 280.636 83.9419 251.664 78.6743 252.542C73.4067 253.42 17.2197 302.584 18.0976 322.776C18.9755 342.968 25.9989 376.329 25.9989 376.329C25.9989 376.329 28.6327 469.389 33.9002 470.267C39.1677 471.145 33.0223 486.948 34.7781 486.948C36.534 486.948 157.687 486.948 158.565 484.314C159.443 481.68 136.617 280.636 136.617 280.636Z" fill="#D0CDE1"/>
<path d="M166.028 489.142C166.028 489.142 182.708 540.062 168.661 538.306C154.615 536.55 148.469 494.41 148.469 494.41L166.028 489.142Z" fill="#FFB8B8"/>
<path d="M121.254 277.562C121.254 277.562 88.7704 284.586 94.038 328.482C99.3055 372.378 108.963 416.274 108.963 416.274L141.446 487.386L144.958 500.555L168.662 494.41L151.103 392.57C151.103 392.57 144.958 283.708 137.056 280.196C132.074 278.072 126.656 277.169 121.254 277.562V277.562Z" fill="#D0CDE1"/>
<path opacity="0.1" d="M101.5 414.958L141.885 486.947L107.86 411.09L101.5 414.958Z" fill="black"/>
<path d="M156.646 204.566L156.768 201.746L162.378 203.142C162.318 202.237 162.062 201.355 161.628 200.558C161.194 199.761 160.592 199.068 159.864 198.527L165.84 198.193C160.826 191.067 154.419 185.032 147.007 180.451C139.595 175.87 131.332 172.839 122.716 171.541C109.79 169.668 95.3973 172.379 86.5336 181.972C82.2344 186.625 79.533 192.542 77.6113 198.579C74.0721 209.697 73.351 222.951 80.731 231.988C88.2316 241.173 101.333 242.972 113.137 244.109C117.29 244.509 121.643 244.881 125.491 243.27C125.92 238.855 125.355 234.401 123.838 230.233C123.206 228.943 122.904 227.516 122.959 226.081C123.483 222.569 128.168 221.684 131.686 222.159C135.205 222.633 139.436 223.359 141.748 220.664C143.341 218.808 143.247 216.105 143.458 213.669C144.033 207.035 156.586 205.956 156.646 204.566Z" fill="#2F2E41"/>
</svg>
